<svg width="40" height="41" viewBox="0 0 40 41" fill="none" xmlns="http://www.w3.org/2000/svg">
<mask id="path-1-inside-1_3_340" fill="white">
<path fill-rule="evenodd" clip-rule="evenodd" d="M40 25.3182C37.2673 26.5686 34.1504 27.2769 30.8419 27.2769C20.0293 27.2769 11.264 19.7123 11.264 10.3809C11.264 6.46724 12.8058 2.86436 15.3939 0C6.54854 2.22521 0 10.2316 0 19.7676C0 31.0245 9.12554 40.15 20.3825 40.15C29.7153 40.15 37.583 33.8775 40 25.3182Z"/>
</mask>
<path fill-rule="evenodd" clip-rule="evenodd" d="M40 25.3182C37.2673 26.5686 34.1504 27.2769 30.8419 27.2769C20.0293 27.2769 11.264 19.7123 11.264 10.3809C11.264 6.46724 12.8058 2.86436 15.3939 0C6.54854 2.22521 0 10.2316 0 19.7676C0 31.0245 9.12554 40.15 20.3825 40.15C29.7153 40.15 37.583 33.8775 40 25.3182Z" fill="#D3C0C3"/>
<path d="M40 25.3182L40.9624 25.5899L41.5499 23.5092L39.5839 24.4088L40 25.3182ZM15.3939 0L16.1359 0.670416L18.3439 -1.77328L15.1499 -0.969784L15.3939 0ZM39.5839 24.4088C36.9826 25.5992 34.0077 26.2769 30.8419 26.2769V28.2769C34.2932 28.2769 37.552 27.538 40.4161 26.2275L39.5839 24.4088ZM30.8419 26.2769C20.4382 26.2769 12.264 19.0268 12.264 10.3809H10.264C10.264 20.3978 19.6204 28.2769 30.8419 28.2769V26.2769ZM12.264 10.3809C12.264 6.73998 13.6963 3.37043 16.1359 0.670416L14.6519 -0.670416C11.9154 2.35829 10.264 6.1945 10.264 10.3809H12.264ZM1 19.7676C1 10.7008 7.22634 3.08586 15.6379 0.969784L15.1499 -0.969784C5.87075 1.36457 -1 9.76244 -1 19.7676H1ZM20.3825 39.15C9.67782 39.15 1 30.4722 1 19.7676H-1C-1 31.5768 8.57325 41.15 20.3825 41.15V39.15ZM39.0376 25.0464C36.7391 33.1863 29.2559 39.15 20.3825 39.15V41.15C30.1746 41.15 38.427 34.5686 40.9624 25.5899L39.0376 25.0464Z" fill="#D3C0C3" mask="url(#path-1-inside-1_3_340)"/>
</svg>
