<svg width="40" height="40" viewBox="0 0 40 40" fill="none" xmlns="http://www.w3.org/2000/svg">
<circle cx="20" cy="19.1837" r="10.5204" fill="white" stroke="black"/>
<path d="M17.7035 5.22098L20.1405 1L22.5775 5.22098H17.7035Z" fill="white"/>
<path d="M17.7035 5.22098L20.1405 1L22.5775 5.22098H17.7035Z" fill="white"/>
<path d="M17.7035 5.22098L20.1405 1L22.5775 5.22098H17.7035Z" stroke="black"/>
<path d="M22.2965 34.779L19.8595 39L17.4225 34.779H22.2965Z" fill="white"/>
<path d="M22.2965 34.779L19.8595 39L17.4225 34.779H22.2965Z" fill="white"/>
<path d="M22.2965 34.779L19.8595 39L17.4225 34.779H22.2965Z" stroke="black"/>
<path d="M7.92585 11.1735L6.66438 6.46563L11.3723 7.7271L7.92585 11.1735Z" fill="white"/>
<path d="M7.92585 11.1735L6.66438 6.46563L11.3723 7.7271L7.92585 11.1735Z" fill="white"/>
<path d="M7.92585 11.1735L6.66438 6.46563L11.3723 7.7271L7.92585 11.1735Z" stroke="black"/>
<path d="M32.0742 28.8265L33.3357 33.5344L28.6278 32.2729L32.0742 28.8265Z" fill="white"/>
<path d="M32.0742 28.8265L33.3357 33.5344L28.6278 32.2729L32.0742 28.8265Z" fill="white"/>
<path d="M32.0742 28.8265L33.3357 33.5344L28.6278 32.2729L32.0742 28.8265Z" stroke="black"/>
<path d="M5.22098 22.2965L1 19.8595L5.22098 17.4225V22.2965Z" fill="white"/>
<path d="M5.22098 22.2965L1 19.8595L5.22098 17.4225V22.2965Z" fill="white"/>
<path d="M5.22098 22.2965L1 19.8595L5.22098 17.4225V22.2965Z" stroke="black"/>
<path d="M34.779 17.7036L39 20.1406L34.779 22.5775V17.7036Z" fill="white"/>
<path d="M34.779 17.7036L39 20.1406L34.779 22.5775V17.7036Z" fill="white"/>
<path d="M34.779 17.7036L39 20.1406L34.779 22.5775V17.7036Z" stroke="black"/>
<path d="M11.1735 32.0742L6.46566 33.3357L7.72713 28.6278L11.1735 32.0742Z" fill="white"/>
<path d="M11.1735 32.0742L6.46566 33.3357L7.72713 28.6278L11.1735 32.0742Z" fill="white"/>
<path d="M11.1735 32.0742L6.46566 33.3357L7.72713 28.6278L11.1735 32.0742Z" stroke="black"/>
<path d="M28.8265 7.92585L33.5344 6.66438L32.2729 11.3723L28.8265 7.92585Z" fill="white"/>
<path d="M28.8265 7.92585L33.5344 6.66438L32.2729 11.3723L28.8265 7.92585Z" fill="white"/>
<path d="M28.8265 7.92585L33.5344 6.66438L32.2729 11.3723L28.8265 7.92585Z" stroke="black"/>
</svg>
