<svg width="40" height="40" viewBox="0 0 40 40" fill="none" xmlns="http://www.w3.org/2000/svg">
<circle cx="20" cy="19.1836" r="10.5204" fill="white"/>
<circle cx="20" cy="19.1836" r="10.5204" fill="#D3C0C3"/>
<circle cx="20" cy="19.1836" r="10.5204" stroke="white"/>
<path d="M17.7035 5.22098L20.1405 1L22.5775 5.22098H17.7035Z" fill="white"/>
<path d="M17.7035 5.22098L20.1405 1L22.5775 5.22098H17.7035Z" fill="#D3C0C3"/>
<path d="M17.7035 5.22098L20.1405 1L22.5775 5.22098H17.7035Z" stroke="white"/>
<path d="M22.2965 34.779L19.8595 39L17.4225 34.779H22.2965Z" fill="white"/>
<path d="M22.2965 34.779L19.8595 39L17.4225 34.779H22.2965Z" fill="#D3C0C3"/>
<path d="M22.2965 34.779L19.8595 39L17.4225 34.779H22.2965Z" stroke="white"/>
<path d="M7.92585 11.1735L6.66438 6.46566L11.3723 7.72713L7.92585 11.1735Z" fill="white"/>
<path d="M7.92585 11.1735L6.66438 6.46566L11.3723 7.72713L7.92585 11.1735Z" fill="#D3C0C3"/>
<path d="M7.92585 11.1735L6.66438 6.46566L11.3723 7.72713L7.92585 11.1735Z" stroke="white"/>
<path d="M32.0742 28.8266L33.3357 33.5345L28.6278 32.273L32.0742 28.8266Z" fill="white"/>
<path d="M32.0742 28.8266L33.3357 33.5345L28.6278 32.273L32.0742 28.8266Z" fill="#D3C0C3"/>
<path d="M32.0742 28.8266L33.3357 33.5345L28.6278 32.273L32.0742 28.8266Z" stroke="white"/>
<path d="M5.22098 22.2966L1 19.8596L5.22098 17.4226V22.2966Z" fill="white"/>
<path d="M5.22098 22.2966L1 19.8596L5.22098 17.4226V22.2966Z" fill="#D3C0C3"/>
<path d="M5.22098 22.2966L1 19.8596L5.22098 17.4226V22.2966Z" stroke="white"/>
<path d="M34.779 17.7037L39 20.1406L34.779 22.5776V17.7037Z" fill="white"/>
<path d="M34.779 17.7037L39 20.1406L34.779 22.5776V17.7037Z" fill="#D3C0C3"/>
<path d="M34.779 17.7037L39 20.1406L34.779 22.5776V17.7037Z" stroke="white"/>
<path d="M11.1735 32.0743L6.46566 33.3357L7.72713 28.6279L11.1735 32.0743Z" fill="white"/>
<path d="M11.1735 32.0743L6.46566 33.3357L7.72713 28.6279L11.1735 32.0743Z" fill="#D3C0C3"/>
<path d="M11.1735 32.0743L6.46566 33.3357L7.72713 28.6279L11.1735 32.0743Z" stroke="white"/>
<path d="M28.8265 7.92585L33.5344 6.66438L32.2729 11.3723L28.8265 7.92585Z" fill="white"/>
<path d="M28.8265 7.92585L33.5344 6.66438L32.2729 11.3723L28.8265 7.92585Z" fill="#D3C0C3"/>
<path d="M28.8265 7.92585L33.5344 6.66438L32.2729 11.3723L28.8265 7.92585Z" stroke="white"/>
</svg>
