<svg width="146" height="106" viewBox="0 0 146 106" fill="none" xmlns="http://www.w3.org/2000/svg">
    <path
        d="M11.272 17.432C7.85867 17.432 5.21333 16.4933 3.336 14.616C1.544 12.6533 0.648001 10.3067 0.648001 7.576C0.648001 6.89333 0.733334 6.08266 0.904001 5.144C1.16 4.20533 1.45867 3.39466 1.8 2.712C2.90933 3.224 4.53067 3.608 6.664 3.864C8.88267 4.03466 11.4427 4.12 14.344 4.12C18.696 4.12 23.6027 3.94933 29.064 3.60799C34.6107 3.18133 39.9013 2.75466 44.936 2.328C49.9707 1.90133 54.408 1.51733 58.248 1.17599C62.088 0.749329 64.5627 0.535995 65.672 0.535995C68.8293 0.535995 71.0907 1.73066 72.456 4.12C73.9067 6.424 74.9733 9.53866 75.656 13.464C73.4373 13.2933 71.2187 13.1653 69 13.08C66.8667 12.9093 65.032 12.824 63.496 12.824C60.7653 12.824 57.992 12.9093 55.176 13.08C52.4453 13.2507 49.672 13.5067 46.856 13.848C45.6613 16.3227 44.3387 19.2667 42.888 22.68C41.4373 26.008 39.9867 29.5067 38.536 33.176C37.1707 36.8453 35.848 40.5147 34.568 44.184C33.288 47.768 32.1787 51.0107 31.24 53.912C29.3627 59.544 27.6987 64.7493 26.248 69.528C24.8827 74.3067 23.6453 78.7867 22.536 82.968C21.512 87.064 20.616 90.9893 19.848 94.744C19.08 98.4987 18.3973 102.168 17.8 105.752C12.0827 104.899 7.304 101.315 3.464 95C4.14667 92.3547 4.95733 89.496 5.896 86.424C6.92 83.2667 8.072 79.7253 9.352 75.8C10.7173 71.7893 12.296 67.2667 14.088 62.232C15.88 57.1973 17.928 51.48 20.232 45.08C21.0853 42.6907 21.9813 40.216 22.92 37.656C23.8587 35.0107 24.7547 32.408 25.608 29.848C26.5467 27.288 27.3573 24.8133 28.04 22.424C28.808 20.0347 29.448 17.8587 29.96 15.896C26.376 16.3227 22.9627 16.7067 19.72 17.048C16.5627 17.304 13.7467 17.432 11.272 17.432ZM144.634 8.728C144.89 10.1787 145.061 11.2027 145.146 11.8C145.317 12.312 145.402 13.0373 145.402 13.976C145.402 16.792 144.762 19.4373 143.482 21.912C142.287 24.3013 140.623 26.008 138.49 27.032C136.783 24.728 134.693 22.7653 132.218 21.144C129.743 19.4373 127.013 18.072 124.026 17.048C121.125 15.9387 118.095 15.128 114.938 14.616C111.781 14.104 108.709 13.848 105.722 13.848C102.735 13.848 99.9193 14.104 97.274 14.616C94.714 15.0427 92.41 15.6827 90.362 16.536C88.3993 17.304 86.8207 18.2853 85.626 19.48C84.5167 20.6747 83.962 22.04 83.962 23.576C84.218 25.4533 85.37 27.3733 87.418 29.336C89.466 31.2133 91.9833 33.0907 94.97 34.968C97.9567 36.76 101.242 38.552 104.826 40.344C108.495 42.136 112.079 43.8427 115.578 45.464C119.93 47.512 123.685 49.432 126.842 51.224C129.999 52.9307 132.602 54.8507 134.65 56.984C136.698 59.032 138.234 61.3787 139.258 64.024C140.282 66.6693 140.794 69.8693 140.794 73.624C140.794 77.976 140.069 82.072 138.618 85.912C137.167 89.6667 135.034 92.952 132.218 95.768C129.487 98.584 126.159 100.76 122.234 102.296C118.309 103.917 113.914 104.728 109.05 104.728C104.271 104.728 99.1087 104.003 93.562 102.552C88.0153 101.101 82.81 99.096 77.946 96.536C73.1673 94.0613 69.1567 91.2027 65.914 87.96C62.7567 84.632 61.178 81.1333 61.178 77.464C61.178 75.7573 61.6473 73.5813 62.586 70.936C63.61 68.2907 65.402 65.5173 67.962 62.616C68.218 65.176 69.5833 68.2053 72.058 71.704C74.618 75.2027 78.4153 78.4453 83.45 81.432C88.1433 84.1627 92.9647 86.168 97.914 87.448C102.949 88.6427 107.642 89.24 111.994 89.24C116.773 89.24 120.655 88.6427 123.642 87.448C126.629 86.2533 128.975 84.8453 130.682 83.224C132.389 81.5173 133.583 79.8107 134.266 78.104C134.949 76.3973 135.333 75.032 135.418 74.008C135.333 72.3013 134.522 70.68 132.986 69.144C131.535 67.5227 129.53 65.9867 126.97 64.536C124.495 63 121.594 61.464 118.266 59.928C114.938 58.392 111.482 56.856 107.898 55.32C102.522 52.9307 97.8713 50.712 93.946 48.664C90.106 46.5307 86.906 44.3973 84.346 42.264C81.8713 40.0453 80.0367 37.7413 78.842 35.352C77.7327 32.9627 77.178 30.232 77.178 27.16C77.178 22.3813 78.6287 17.8587 81.53 13.592C84.4313 9.32533 88.6127 6.08266 94.074 3.864C96.8047 2.66933 99.706 1.816 102.778 1.30399C105.935 0.791995 109.007 0.535995 111.994 0.535995C117.626 0.535995 123.13 1.304 128.506 2.84C133.882 4.376 139.258 6.33866 144.634 8.728Z"
        fill="#FF92F4" />
</svg>
    