<svg width="251" height="224" viewBox="0 0 251 224" fill="none" xmlns="http://www.w3.org/2000/svg">
    <path
        d="M47.242 75.252C43.0287 75.252 39.7633 74.0933 37.446 71.776C35.234 69.3533 34.128 66.4567 34.128 63.086C34.128 62.2433 34.2333 61.2427 34.444 60.084C34.76 58.9253 35.1287 57.9247 35.55 57.082C36.9193 57.714 38.9207 58.188 41.554 58.504C44.2927 58.7147 47.4527 58.82 51.034 58.82C56.406 58.82 62.4627 58.6093 69.204 58.188C76.0507 57.6613 82.5813 57.1347 88.796 56.608C95.0107 56.0813 100.488 55.6073 105.228 55.186C109.968 54.6593 113.023 54.396 114.392 54.396C118.289 54.396 121.081 55.8707 122.766 58.82C124.557 61.664 125.873 65.5087 126.716 70.354C123.977 70.1433 121.239 69.9853 118.5 69.88C115.867 69.6693 113.602 69.564 111.706 69.564C108.335 69.564 104.912 69.6693 101.436 69.88C98.0653 70.0907 94.642 70.4067 91.166 70.828C89.6913 73.8827 88.0587 77.5167 86.268 81.73C84.4773 85.838 82.6867 90.1567 80.896 94.686C79.2107 99.2153 77.578 103.745 75.998 108.274C74.418 112.698 73.0487 116.701 71.89 120.282C69.5727 127.234 67.5187 133.659 65.728 139.558C64.0427 145.457 62.5153 150.987 61.146 156.148C59.882 161.204 58.776 166.049 57.828 170.684C56.88 175.319 56.0373 179.848 55.3 184.272C48.2427 183.219 42.344 178.795 37.604 171C38.4467 167.735 39.4473 164.206 40.606 160.414C41.87 156.517 43.292 152.145 44.872 147.3C46.5573 142.349 48.506 136.767 50.718 130.552C52.93 124.337 55.458 117.28 58.302 109.38C59.3553 106.431 60.4613 103.376 61.62 100.216C62.7787 96.9507 63.8847 93.738 64.938 90.578C66.0967 87.418 67.0973 84.3633 67.94 81.414C68.888 78.4647 69.678 75.7787 70.31 73.356C65.886 73.8827 61.6727 74.3567 57.67 74.778C53.7727 75.094 50.2967 75.252 47.242 75.252Z"
        fill="#D675CC" stroke-width="6" stroke="#D675CC" />
    <path
        d="M241.974 64.508C242.29 66.2987 242.501 67.5627 242.606 68.3C242.817 68.932 242.922 69.8273 242.922 70.986C242.922 74.462 242.132 77.7273 240.552 80.782C239.077 83.7313 237.023 85.838 234.39 87.102C232.283 84.258 229.703 81.8353 226.648 79.834C223.593 77.7273 220.223 76.042 216.536 74.778C212.955 73.4087 209.215 72.408 205.318 71.776C201.421 71.144 197.629 70.828 193.942 70.828C190.255 70.828 186.779 71.144 183.514 71.776C180.354 72.3027 177.51 73.0927 174.982 74.146C172.559 75.094 170.611 76.3053 169.136 77.78C167.767 79.2547 167.082 80.94 167.082 82.836C167.398 85.1533 168.82 87.5233 171.348 89.946C173.876 92.2633 176.983 94.5807 180.67 96.898C184.357 99.11 188.412 101.322 192.836 103.534C197.365 105.746 201.789 107.853 206.108 109.854C211.48 112.382 216.115 114.752 220.012 116.964C223.909 119.071 227.122 121.441 229.65 124.074C232.178 126.602 234.074 129.499 235.338 132.764C236.602 136.029 237.234 139.979 237.234 144.614C237.234 149.986 236.339 155.042 234.548 159.782C232.757 164.417 230.124 168.472 226.648 171.948C223.277 175.424 219.169 178.11 214.324 180.006C209.479 182.007 204.054 183.008 198.05 183.008C192.151 183.008 185.779 182.113 178.932 180.322C172.085 178.531 165.66 176.056 159.656 172.896C153.757 169.841 148.807 166.313 144.804 162.31C140.907 158.202 138.958 153.883 138.958 149.354C138.958 147.247 139.537 144.561 140.696 141.296C141.96 138.031 144.172 134.607 147.332 131.026C147.648 134.186 149.333 137.925 152.388 142.244C155.548 146.563 160.235 150.565 166.45 154.252C172.243 157.623 178.195 160.098 184.304 161.678C190.519 163.153 196.312 163.89 201.684 163.89C207.583 163.89 212.375 163.153 216.062 161.678C219.749 160.203 222.645 158.465 224.752 156.464C226.859 154.357 228.333 152.251 229.176 150.144C230.019 148.037 230.493 146.352 230.598 145.088C230.493 142.981 229.492 140.98 227.596 139.084C225.805 137.083 223.33 135.187 220.17 133.396C217.115 131.5 213.534 129.604 209.426 127.708C205.318 125.812 201.052 123.916 196.628 122.02C189.992 119.071 184.251 116.332 179.406 113.804C174.666 111.171 170.716 108.537 167.556 105.904C164.501 103.165 162.237 100.321 160.762 97.372C159.393 94.4227 158.708 91.052 158.708 87.26C158.708 81.3613 160.499 75.7787 164.08 70.512C167.661 65.2453 172.823 61.2427 179.564 58.504C182.935 57.0293 186.516 55.976 190.308 55.344C194.205 54.712 197.997 54.396 201.684 54.396C208.636 54.396 215.43 55.344 222.066 57.24C228.702 59.136 235.338 61.5587 241.974 64.508Z"
        fill="#D675CC" stroke-width="6" stroke="#D675CC" />
</svg>